# xmcd
#
# Track frame offsets:
#	182
#	13385
#	25375
#	38432
#	51230
#	61640
#	71602
#	85207
#	94720
#	105600
#	130480
#	144087
#	158107
#	166820
#	180210
#	192897
#	206027
#	218435
#	230035
#	241790
#	253290
#	264515
#	273135
#	283822
#	297005
#
# Disc length: 4147
#
# Revision: 2
# Processed by: cddbd v1.5.1PL0 Copyright (c) Steve Scherf et al.
# Submitted via: inCDius 1.1b8
# Normalized: r0:DSETVAR1,TSWAP
#
DISCID=5d103119
DTITLE=Various Artist - Nashville Classics 1950s
DYEAR=1900
DGENRE=
TTITLE0=Eddy Arnold - Take Me In Your Arms And Hold Me
TTITLE1=Roy Rogers and The Sons Of The Pioneers - Stampede
TTITLE2=Elton Britt and Rosalie Allen - Quicksilver
TTITLE3=Hank  Snow - I'm Movin' On
TTITLE4=Johnny and Jack - Poison Love
TTITLE5=Hank Snow and Anita Carter - Down The Trail Of Achin' Hearts
TTITLE6=Pee Weee King and His Golden West Cowboys - Slow Poke
TTITLE7=Grandpa Jones - Stop That Ticklin' Me
TTITLE8=Eddy Arnold - Eddy's Song
TTITLE9=Homer and Jethro - (How Much Is) That Hound Dog In The Window
TTITLE10=Davis Sisters - I Forgot More Than You'll Ever Know
TTITLE11=Betty Cody - I Found Out More Than You'll Ever Know
TTITLE12=Johnny and Jack - Oh Baby Mine (I Get So Lonely)
TTITLE13=Hank Snow - I Don't Hurt Anymore
TTITLE14=Porter Wagoner - A Satisfied Mind
TTITLE15=Jimmie Rodgers, Chet Atkins and Hank Snow - In The Jailhouse Now No. 2
TTITLE16=Eddy Arnold - The Cattle Call
TTITLE17=Jim Reeves - Yonder Comes A Sucker
TTITLE18=The Browns - I Heard The Bluebirds Sing
TTITLE19=Don Gibson - Oh, Lonesome Me
TTITLE20=Hank Locklin - Send Me The Pillow You Dream On
TTITLE21=Don Gibson - Blue Blue Day
TTITLE22=Jim Reeves - He'll Have To Go
TTITLE23=The Browns - The Three Bells
TTITLE24=Eddy Arnold - Tennessee Stud
EXTD=
EXTT0=
EXTT1=
EXTT2=
EXTT3=
EXTT4=
EXTT5=
EXTT6=
EXTT7=
EXTT8=
EXTT9=
EXTT10=
EXTT11=
EXTT12=
EXTT13=
EXTT14=
EXTT15=
EXTT16=
EXTT17=
EXTT18=
EXTT19=
EXTT20=
EXTT21=
EXTT22=
EXTT23=
EXTT24=
PLAYORDER=
